{"glyphs":{":":{"x_min":0,"x_max":220,"ha":220,"o":"m 85 445 l 175 445 l 164 344 l 75 344 z m 49 100 l 138 100 l 128 0 l 38 0 z"},"$":{"x_min":0,"x_max":463,"ha":463,"o":"m 406 159 q 406 84 356 41 q 306 -2 223 -7 l 217 -65 l 177 -65 l 183 -7 q 132 -4 89 11 q 46 26 24 42 l 47 156 l 106 151 l 96 78 q 137 56 189 51 l 209 246 q 148 260 106 286 q 64 312 64 373 q 64 447 115 486 q 166 524 239 528 l 246 593 l 286 593 l 279 528 q 363 522 416 481 l 411 366 l 352 362 l 351 446 q 332 459 312 464 q 292 470 273 472 l 255 302 q 306 290 356 262 q 406 234 406 159 z m 139 386 q 139 351 160 336 q 182 320 216 311 l 233 472 q 139 462 139 386 z m 332 148 q 332 188 309 207 q 286 226 248 236 l 229 51 q 273 55 302 79 q 332 103 332 148 z"},"?":{"x_min":0,"x_max":438,"ha":438,"o":"m 118 460 l 61 465 l 82 585 q 114 615 162 638 q 210 660 265 660 q 332 660 382 627 q 433 594 433 532 q 433 480 398 444 q 364 409 320 382 q 275 354 240 328 q 206 302 206 268 q 206 231 254 231 l 249 181 q 183 177 157 200 q 131 224 131 259 q 131 307 165 338 q 199 370 243 396 q 287 421 321 450 q 355 478 355 519 q 355 595 251 595 q 191 595 141 556 z m 133 0 l 143 97 l 230 97 l 220 0 z"},"<":{"x_min":0,"x_max":397,"ha":397,"o":"m 314 14 l 28 269 l 30 289 l 370 549 l 361 480 l 105 280 l 321 83 z"},"'":{"x_min":0,"x_max":190,"ha":190,"o":"m 136 377 l 74 377 l 99 650 l 169 650 z"},"=":{"x_min":0,"x_max":565,"ha":565,"o":"m 68 364 l 74 418 l 522 418 l 516 364 z m 45 144 l 51 196 l 499 196 l 493 144 z"},"a":{"x_min":0,"x_max":505,"ha":505,"o":"m 456 445 q 446 410 438 376 q 430 342 426 307 l 394 57 l 461 57 l 457 17 l 436 0 l 331 0 l 333 90 q 311 50 276 20 q 240 -10 181 -10 q 108 -10 70 41 q 32 92 32 178 q 32 235 52 300 q 71 364 116 409 q 161 454 238 454 q 340 454 370 370 q 374 389 379 408 q 384 426 390 445 z m 245 397 q 190 397 160 363 q 130 329 118 280 q 105 232 105 189 q 105 47 202 47 q 257 47 294 92 q 330 137 341 183 l 354 281 q 353 331 323 364 q 293 397 245 397 z"},"L":{"x_min":0,"x_max":528,"ha":528,"o":"m 468 0 l 12 0 l 18 64 l 98 64 l 153 586 l 73 586 l 80 650 l 337 650 l 331 586 l 224 586 l 169 64 l 411 64 l 446 213 l 509 208 z"},"3":{"x_min":0,"x_max":504,"ha":504,"o":"m 137 362 l 81 369 l 109 479 q 138 498 182 514 q 226 531 276 531 q 347 531 396 494 q 446 458 446 388 q 446 336 416 289 q 386 242 306 218 l 306 214 q 382 200 411 158 q 440 116 440 69 q 440 -25 377 -83 q 314 -141 210 -141 q 119 -141 74 -100 q 28 -59 22 0 l 80 20 q 90 -20 120 -49 q 150 -78 212 -78 q 301 -78 332 -29 q 363 20 363 68 q 363 120 324 150 q 286 179 191 182 l 196 236 q 300 241 334 286 q 369 332 369 374 q 369 468 256 468 q 210 468 164 444 z"},";":{"x_min":0,"x_max":232,"ha":232,"o":"m 88 343 l 98 444 l 191 444 l 181 343 z m -6 -102 l 68 114 l 136 114 l 62 -102 z"},"J":{"x_min":0,"x_max":442,"ha":442,"o":"m 179 650 l 445 650 l 439 586 l 369 586 l 325 166 q 316 78 268 34 q 220 -10 144 -10 q 81 -10 47 18 q 13 45 -3 89 l 52 129 q 68 88 90 74 q 113 59 145 59 q 196 59 222 88 q 249 117 254 166 l 298 586 l 173 586 z"},"V":{"x_min":0,"x_max":632,"ha":632,"o":"m 664 586 l 605 586 l 316 0 l 258 0 l 91 586 l 30 586 l 36 650 l 264 650 l 258 586 l 168 586 l 300 108 l 304 108 l 532 586 l 442 586 l 448 650 l 671 650 z"},"\"":{"x_min":0,"x_max":366,"ha":366,"o":"m 136 377 l 74 377 l 99 650 l 169 650 z m 312 377 l 250 377 l 275 650 l 345 650 z"},"7":{"x_min":0,"x_max":463,"ha":463,"o":"m 59 521 l 462 521 l 468 479 l 165 -130 l 89 -130 l 389 458 l 117 458 l 105 347 l 40 347 z"},"S":{"x_min":0,"x_max":523,"ha":523,"o":"m 468 194 q 468 96 406 43 q 343 -10 228 -10 q 166 -10 109 4 q 52 19 24 43 l 50 171 l 107 165 l 96 83 q 124 67 160 60 q 197 54 228 54 q 300 54 346 84 q 391 115 391 185 q 391 256 348 275 q 304 294 247 308 q 186 322 130 354 q 75 386 75 474 q 75 572 145 616 q 215 660 296 660 q 348 660 401 645 q 454 630 480 606 l 473 477 l 413 471 l 413 568 q 384 584 354 590 q 323 595 299 595 q 231 595 191 565 q 151 535 151 480 q 151 424 189 405 q 227 386 280 372 q 355 354 412 323 q 468 292 468 194 z"},"}":{"x_min":0,"x_max":277,"ha":277,"o":"m 168 271 q 120 279 100 301 q 80 323 80 349 q 80 384 109 436 q 138 487 166 542 q 195 598 195 644 q 195 698 139 698 l 76 698 l 82 750 l 145 750 q 199 750 226 722 q 254 694 254 649 q 254 596 226 538 q 197 480 168 430 q 140 379 140 348 q 140 312 174 302 q 208 291 230 291 l 248 291 l 244 251 l 226 251 q 202 251 162 238 q 123 226 123 183 q 123 140 150 64 q 177 -11 177 -79 q 177 -140 142 -176 q 108 -212 44 -212 l -19 -212 l -14 -160 l 49 -160 q 119 -160 119 -82 q 119 -41 105 8 q 91 57 77 102 q 63 148 63 180 q 63 210 86 236 q 110 262 168 271 z"},"Z":{"x_min":0,"x_max":563,"ha":563,"o":"m 480 0 l 5 0 l 6 44 l 437 583 l 437 586 l 160 586 l 119 453 l 60 462 l 104 650 l 538 650 l 543 610 l 110 67 l 109 64 l 422 64 l 464 202 l 525 193 z"},"x":{"x_min":0,"x_max":477,"ha":477,"o":"m 449 18 l 428 0 l 242 0 l 246 38 l 267 57 l 313 57 l 221 197 q 77 106 104 0 l 26 0 q 8 71 66 126 q 123 182 194 229 l 84 388 l 21 388 l 26 426 l 47 445 l 234 445 l 229 406 l 208 388 l 160 388 l 244 261 q 379 353 352 445 l 428 445 q 443 406 420 368 q 398 330 356 294 q 314 259 271 229 l 388 57 l 454 57 z"},")":{"x_min":0,"x_max":272,"ha":272,"o":"m 25 -183 l -41 -183 q 65 -62 119 63 q 173 188 173 323 q 173 423 144 526 q 114 630 54 718 l 122 718 q 180 626 206 525 q 233 424 233 327 q 233 194 183 68 q 133 -58 25 -183 z"},"&":{"x_min":0,"x_max":716,"ha":716,"o":"m 429 362 l 702 362 l 695 299 l 593 299 q 570 252 530 198 q 491 144 440 98 q 504 58 566 58 q 609 58 648 79 l 659 18 q 607 -10 551 -10 q 506 -10 463 6 q 420 22 380 51 q 340 23 296 6 q 252 -10 206 -10 q 135 -10 84 31 q 33 72 33 145 q 33 210 76 252 q 120 294 178 325 q 155 392 155 453 q 155 544 209 602 q 263 660 349 660 q 415 660 456 626 q 497 591 497 533 q 497 478 460 440 q 423 403 368 374 q 314 346 259 320 q 309 204 400 127 q 477 196 517 299 l 422 299 z m 424 529 q 424 558 404 580 q 385 602 344 602 q 292 602 260 564 q 227 527 227 463 q 227 412 245 357 q 316 393 370 434 q 424 475 424 529 z m 194 286 q 154 262 129 232 q 104 201 104 156 q 104 100 139 76 q 174 52 224 52 q 283 52 339 83 q 247 166 194 286 z"},"_":{"x_min":0,"x_max":527,"ha":527,"o":"m 16 -74 l 440 -74 l 435 -125 l 11 -125 z"},"v":{"x_min":0,"x_max":469,"ha":469,"o":"m 225 406 l 204 388 l 141 388 l 231 82 l 237 82 q 301 154 334 220 q 366 285 366 352 q 366 374 362 398 q 359 421 349 445 l 428 445 q 443 382 432 317 q 422 252 380 185 q 354 144 312 94 q 269 44 224 0 l 186 0 l 69 388 l 13 388 l 18 426 l 39 445 l 230 445 z"},"O":{"x_min":0,"x_max":710,"ha":710,"o":"m 393 660 q 525 660 602 572 q 678 484 678 359 q 678 259 632 175 q 586 91 506 40 q 427 -10 325 -10 q 192 -10 117 78 q 42 166 42 291 q 42 392 88 476 q 135 560 214 610 q 294 660 393 660 z m 336 56 q 459 56 530 146 q 602 236 602 354 q 602 459 546 526 q 489 594 385 594 q 266 594 192 506 q 118 418 118 297 q 118 200 171 128 q 224 56 336 56 z"},"(":{"x_min":0,"x_max":273,"ha":273,"o":"m 245 718 l 311 718 q 205 597 151 472 q 97 347 97 212 q 97 112 126 8 q 156 -95 216 -183 l 148 -183 q 90 -91 64 10 q 37 111 37 208 q 37 341 87 468 q 137 594 245 718 z"},"C":{"x_min":0,"x_max":630,"ha":630,"o":"m 540 50 q 500 20 442 5 q 385 -10 330 -10 q 191 -10 118 74 q 44 157 44 289 q 44 390 86 474 q 128 559 206 610 q 283 660 390 660 q 461 660 514 638 q 567 616 600 584 l 604 459 l 542 453 l 534 548 q 506 569 470 582 q 433 594 386 594 q 268 594 193 514 q 118 433 118 295 q 118 56 344 56 q 425 56 481 85 l 509 181 l 569 175 z"},"W":{"x_min":0,"x_max":909,"ha":909,"o":"m 936 586 l 882 586 l 652 0 l 594 0 l 485 520 l 480 520 l 264 0 l 205 0 l 88 586 l 34 586 l 40 650 l 258 650 l 251 586 l 161 586 l 246 120 l 251 120 l 446 586 l 382 586 l 389 650 l 607 650 l 600 586 l 536 586 l 633 117 l 639 117 l 809 586 l 719 586 l 726 650 l 942 650 z"},"A":{"x_min":0,"x_max":632,"ha":632,"o":"m -18 64 l 42 64 l 304 586 l 203 586 l 209 650 l 389 650 l 556 64 l 618 64 l 611 0 l 388 0 l 394 64 l 479 64 l 446 189 l 176 189 l 115 64 l 205 64 l 199 0 l -23 0 z m 349 544 l 204 246 l 431 246 l 353 544 z"},"f":{"x_min":0,"x_max":306,"ha":306,"o":"m 289 698 q 318 698 344 692 q 370 686 396 667 l 402 563 l 345 556 l 335 632 q 322 638 307 640 q 292 642 281 642 q 207 642 194 534 l 183 445 l 313 445 l 308 409 l 285 388 l 176 388 l 121 -58 q 111 -133 78 -178 q 46 -223 -24 -223 q -74 -223 -108 -194 q -143 -166 -142 -98 l -87 -82 q -89 -137 -68 -152 q -47 -166 -28 -166 q 10 -166 28 -138 q 46 -109 53 -57 l 108 388 l 23 388 l 27 425 l 50 445 l 115 445 l 126 531 q 146 698 289 698 z"},"Q":{"x_min":0,"x_max":720,"ha":720,"o":"m 393 660 q 525 660 602 572 q 678 484 678 359 q 678 280 648 210 q 618 139 566 88 l 649 -3 l 602 -47 l 516 47 q 430 -10 325 -10 q 192 -10 117 78 q 42 166 42 291 q 42 392 88 476 q 135 560 214 610 q 294 660 393 660 z m 378 200 l 425 244 l 522 136 q 602 224 602 354 q 602 459 546 526 q 489 594 385 594 q 266 594 192 506 q 118 418 118 297 q 118 200 171 128 q 224 56 336 56 q 414 56 473 95 z"},"w":{"x_min":0,"x_max":713,"ha":713,"o":"m 488 82 l 492 82 q 607 221 607 354 q 607 405 591 445 l 669 445 q 683 376 672 308 q 660 240 618 172 q 596 133 557 85 q 518 37 479 0 l 444 0 l 368 335 l 364 335 l 207 0 l 166 0 l 65 388 l 14 388 l 19 426 l 41 445 l 230 445 l 225 406 l 204 388 l 137 388 l 202 108 l 206 108 l 361 445 l 407 445 z"},"-":{"x_min":0,"x_max":342,"ha":342,"o":"m 55 261 l 283 261 l 277 200 l 49 200 z"},"E":{"x_min":0,"x_max":573,"ha":573,"o":"m 481 0 l 12 0 l 18 64 l 98 64 l 154 586 l 73 586 l 80 650 l 545 650 l 545 466 l 482 459 l 476 586 l 225 586 l 200 362 l 502 362 l 496 298 l 194 298 l 169 64 l 425 64 l 458 191 l 519 184 z"},"s":{"x_min":0,"x_max":418,"ha":418,"o":"m 181 47 q 289 47 289 124 q 289 165 256 180 q 224 194 172 208 q 128 219 92 241 q 55 263 55 321 q 55 387 103 420 q 151 454 214 454 q 259 454 300 442 q 341 430 368 413 l 366 309 l 311 302 l 307 373 q 288 383 268 390 q 247 397 220 397 q 126 397 126 328 q 126 298 149 284 q 172 270 221 257 q 267 245 314 222 q 360 199 360 130 q 360 65 313 28 q 266 -10 191 -10 q 145 -10 96 2 q 46 15 20 34 l 44 135 l 99 129 l 89 67 q 128 47 181 47 z"},">":{"x_min":0,"x_max":398,"ha":398,"o":"m 368 269 l 30 14 l 37 83 l 295 280 l 78 480 l 86 549 l 371 289 z"},"l":{"x_min":0,"x_max":239,"ha":239,"o":"m 52 669 l 72 688 l 199 688 l 122 57 l 196 57 l 191 17 l 170 0 l 47 0 l 124 631 l 47 631 z"},"8":{"x_min":0,"x_max":528,"ha":528,"o":"m 229 -10 q 143 -10 87 29 q 31 68 31 147 q 31 225 83 265 q 135 305 202 332 q 154 358 119 392 q 84 426 84 483 q 84 558 147 609 q 210 660 304 660 q 384 660 437 620 q 490 580 490 510 q 490 443 444 406 q 398 370 337 344 q 391 318 432 280 q 474 243 474 176 q 474 91 404 40 q 333 -10 229 -10 z m 160 494 q 160 447 198 420 q 237 392 288 368 q 340 390 378 420 q 416 450 416 502 q 416 552 382 575 q 348 598 299 598 q 240 598 200 570 q 160 542 160 494 z m 240 52 q 304 52 352 82 q 399 113 399 167 q 399 221 353 251 q 307 281 250 307 q 193 282 148 250 q 104 219 104 160 q 104 107 142 80 q 181 52 240 52 z"},"\\":{"x_min":0,"x_max":506,"ha":506,"o":"m 73 688 l 140 688 l 426 0 l 361 0 z"},"e":{"x_min":0,"x_max":437,"ha":437,"o":"m 213 47 q 259 47 288 72 q 318 96 334 137 l 389 124 q 375 68 327 29 q 279 -10 202 -10 q 121 -10 76 40 q 31 89 31 183 q 31 297 92 376 q 154 454 256 454 q 315 454 357 424 q 399 395 399 343 q 399 294 362 259 q 326 224 240 206 q 209 200 174 194 q 140 187 104 182 q 105 119 130 83 q 154 47 213 47 z m 211 248 q 287 265 306 289 q 326 313 326 337 q 326 371 305 385 q 284 399 249 399 q 179 399 146 347 q 114 295 106 232 q 174 241 211 248 z"},"b":{"x_min":0,"x_max":504,"ha":504,"o":"m 49 670 l 70 688 l 194 688 l 153 357 q 176 397 211 426 q 246 454 303 454 q 380 454 420 402 q 461 350 461 265 q 461 208 442 144 q 422 80 376 35 q 330 -10 252 -10 q 145 -10 114 73 q 110 55 105 37 q 100 19 95 0 l 28 0 q 36 29 44 63 q 53 97 57 130 l 118 631 l 44 631 z m 246 47 q 300 47 331 82 q 362 116 375 165 q 388 214 388 255 q 388 397 285 397 q 228 397 190 353 q 153 309 142 262 l 130 165 q 130 115 162 81 q 195 47 246 47 z"},"%":{"x_min":0,"x_max":675,"ha":675,"o":"m 170 243 q 113 243 80 274 q 47 306 47 367 q 47 444 93 487 q 139 530 208 530 q 264 530 297 499 q 330 468 330 406 q 330 334 287 288 q 244 243 170 243 z m 596 521 l 372 267 l 146 0 l 72 0 l 328 287 l 523 521 z m 176 294 q 225 294 248 324 q 271 354 271 401 q 271 479 201 479 q 106 479 106 372 q 106 294 176 294 z m 467 -10 q 411 -10 378 20 q 344 50 344 115 q 344 192 390 234 q 436 277 506 277 q 561 277 594 245 q 627 213 627 152 q 627 81 584 36 q 542 -10 467 -10 z m 473 40 q 522 40 546 70 q 569 101 569 148 q 569 227 498 227 q 403 227 403 119 q 403 40 473 40 z"},"m":{"x_min":0,"x_max":787,"ha":787,"o":"m 55 445 l 169 445 l 166 357 q 189 401 225 428 q 261 454 314 454 q 421 454 436 351 q 458 398 494 426 q 531 454 586 454 q 649 454 684 412 q 720 371 710 285 l 682 57 l 757 57 l 752 17 l 730 0 l 608 0 l 640 264 q 648 336 626 366 q 604 397 557 397 q 503 397 474 362 q 446 328 435 282 l 401 0 l 334 0 l 366 264 q 374 337 352 367 q 330 397 285 397 q 224 397 194 356 q 165 314 158 261 l 157 262 l 126 0 l 59 0 l 106 388 l 28 388 l 33 426 z"},"#":{"x_min":0,"x_max":579,"ha":579,"o":"m 509 521 l 474 403 l 554 403 l 547 346 l 457 346 l 409 182 l 501 182 l 494 125 l 392 125 l 356 0 l 294 0 l 330 125 l 158 125 l 122 0 l 60 0 l 96 125 l 22 125 l 28 182 l 113 182 l 161 346 l 74 346 l 81 403 l 178 403 l 213 521 l 275 521 l 240 403 l 412 403 l 447 521 z m 175 182 l 347 182 l 395 346 l 223 346 z"},",":{"x_min":0,"x_max":200,"ha":200,"o":"m -15 -102 l 59 114 l 127 114 l 53 -102 z"},"n":{"x_min":0,"x_max":523,"ha":523,"o":"m 55 445 l 169 445 l 168 359 q 192 402 229 428 q 266 454 318 454 q 382 454 419 414 q 456 374 446 285 l 418 57 l 493 57 l 488 17 l 467 0 l 344 0 l 376 264 q 384 336 361 366 q 338 397 290 397 q 236 397 202 360 q 169 322 160 274 l 126 0 l 59 0 l 106 388 l 28 388 l 33 426 z"},"h":{"x_min":0,"x_max":505,"ha":505,"o":"m 46 669 l 68 688 l 192 688 l 152 365 q 176 406 212 430 q 248 454 300 454 q 363 454 400 414 q 438 374 427 285 l 399 57 l 474 57 l 469 17 l 448 0 l 325 0 l 357 264 q 366 336 342 366 q 318 397 272 397 q 219 397 186 360 q 152 324 142 278 l 108 0 l 40 0 l 117 631 l 41 631 z"},"z":{"x_min":0,"x_max":448,"ha":448,"o":"m 372 0 l 16 0 l 7 43 l 325 388 l 123 388 l 101 299 l 46 306 l 73 445 l 401 445 l 414 403 l 100 57 l 322 57 l 355 147 l 410 138 z"},"B":{"x_min":0,"x_max":588,"ha":588,"o":"m 368 650 q 457 650 501 612 q 545 574 545 512 q 545 451 510 408 q 474 364 422 354 l 421 350 q 482 340 511 299 q 540 258 540 203 q 540 120 480 60 q 420 0 308 0 l 13 0 l 19 64 l 98 64 l 153 586 l 74 586 l 81 650 z m 326 366 q 388 366 428 400 q 469 433 469 491 q 469 543 438 564 q 407 586 352 586 l 223 586 l 200 366 z m 302 64 q 375 64 420 100 q 464 136 464 201 q 464 306 350 306 l 194 306 l 168 64 z"},"K":{"x_min":0,"x_max":623,"ha":623,"o":"m 367 64 l 440 64 l 298 299 l 193 299 l 168 64 l 241 64 l 234 0 l 11 0 l 19 64 l 97 64 l 152 586 l 73 586 l 79 650 l 304 650 l 297 586 l 223 586 l 199 362 l 302 362 l 486 587 l 414 587 l 421 651 l 643 651 l 636 587 l 566 587 l 356 338 l 523 64 l 594 64 l 587 0 l 359 0 z"},"R":{"x_min":0,"x_max":599,"ha":599,"o":"m 19 64 l 98 64 l 153 586 l 74 586 l 81 650 l 346 650 q 453 650 504 603 q 554 556 554 485 q 554 329 397 288 l 488 64 l 568 64 l 560 0 l 434 0 l 328 272 l 190 272 l 168 64 l 254 64 l 248 0 l 13 0 z m 312 333 q 402 333 440 375 q 479 417 479 479 q 479 586 330 586 l 223 586 l 197 333 z"},"T":{"x_min":0,"x_max":605,"ha":605,"o":"m 599 452 l 535 447 l 530 586 l 371 586 l 316 64 l 428 64 l 422 0 l 129 0 l 136 64 l 245 64 l 300 586 l 139 586 l 105 447 l 42 452 l 81 650 l 601 650 z"},"P":{"x_min":0,"x_max":561,"ha":561,"o":"m 19 64 l 98 64 l 153 586 l 74 586 l 81 650 l 342 650 q 449 650 498 596 q 548 543 548 469 q 548 360 482 301 q 415 242 311 242 l 187 242 l 168 64 l 278 64 l 271 0 l 13 0 z m 308 306 q 388 306 430 348 q 473 391 473 466 q 473 522 438 554 q 402 586 330 586 l 223 586 l 194 306 z"},"|":{"x_min":0,"x_max":230,"ha":230,"o":"m 193 730 l 108 -80 l 47 -80 l 132 730 z"},"t":{"x_min":0,"x_max":343,"ha":343,"o":"m 28 425 l 51 445 l 106 445 l 120 565 l 144 588 l 191 588 l 173 445 l 325 445 l 320 409 l 297 388 l 166 388 l 136 137 q 126 47 191 47 q 213 47 232 62 q 250 76 266 132 l 316 115 q 299 50 268 20 q 238 -10 183 -10 q 121 -10 90 28 q 60 66 68 131 l 99 388 l 23 388 z"},"M":{"x_min":0,"x_max":856,"ha":856,"o":"m 20 64 l 98 64 l 153 586 l 70 586 l 77 650 l 222 650 l 415 144 l 419 144 l 711 650 l 857 650 l 851 586 l 767 586 l 712 64 l 792 64 l 786 0 l 561 0 l 567 64 l 641 64 l 685 477 l 681 477 l 422 33 l 384 33 l 214 481 l 210 481 l 166 64 l 242 64 l 236 0 l 13 0 z"},"g":{"x_min":0,"x_max":513,"ha":513,"o":"m 392 445 l 519 445 l 515 406 l 493 388 l 442 388 l 395 6 q 382 -94 332 -158 q 281 -223 179 -223 q 112 -223 63 -190 q 14 -156 4 -90 l 56 -64 q 66 -116 103 -139 q 140 -162 184 -162 q 307 -162 327 9 l 336 87 q 313 47 275 18 q 237 -10 180 -10 q 107 -10 69 41 q 31 92 31 175 q 31 234 52 299 q 73 364 120 409 q 166 454 243 454 q 344 454 375 373 z m 249 397 q 196 397 164 364 q 132 330 118 281 q 104 232 104 185 q 104 47 200 47 q 257 47 297 92 q 337 138 348 184 l 360 276 q 361 328 331 362 q 301 397 249 397 z"},"j":{"x_min":0,"x_max":245,"ha":245,"o":"m 129 560 l 138 651 l 212 651 l 202 560 z m 24 426 l 46 445 l 193 445 l 136 -18 q 112 -217 -1 -223 q -23 -224 -42 -218 q -62 -213 -80 -205 l -77 -154 q -25 -175 14 -150 q 54 -126 68 -18 l 118 388 l 19 388 z"},"i":{"x_min":0,"x_max":255,"ha":255,"o":"m 125 560 l 134 651 l 208 651 l 199 560 z m 36 426 l 57 445 l 183 445 l 136 57 l 211 57 l 206 17 l 184 0 l 61 0 l 108 388 l 31 388 z"},"y":{"x_min":0,"x_max":468,"ha":468,"o":"m 231 82 l 237 82 q 365 225 365 352 q 365 401 347 445 l 427 445 q 442 382 432 317 q 421 252 379 185 q 357 150 322 106 q 286 62 246 21 l 222 -156 l 299 -156 l 295 -195 l 274 -213 l 72 -213 l 77 -175 l 98 -156 l 154 -156 l 179 23 l 70 388 l 13 388 l 18 426 l 39 445 l 230 445 l 225 406 l 204 388 l 142 388 z"},"@":{"x_min":0,"x_max":891,"ha":891,"o":"m 617 307 l 596 134 q 596 132 595 124 q 594 116 594 111 q 593 84 606 62 q 618 40 652 40 q 700 40 730 80 q 760 119 774 178 q 787 238 787 296 q 787 412 742 478 q 698 545 630 572 q 562 599 490 599 q 376 599 286 546 q 195 492 143 399 q 91 306 91 188 q 91 24 186 -62 q 281 -147 415 -147 q 470 -147 528 -132 q 586 -116 633 -85 l 653 -130 q 600 -163 536 -182 q 472 -202 404 -202 q 244 -202 138 -96 q 32 11 32 183 q 32 312 92 419 q 152 526 256 590 q 359 654 488 654 q 573 654 656 620 q 739 585 794 510 q 848 434 848 312 q 848 244 827 169 q 806 94 759 42 q 712 -10 635 -10 q 582 -10 554 20 q 526 50 524 90 q 502 50 466 20 q 430 -10 373 -10 q 300 -10 262 41 q 223 92 223 178 q 223 235 242 300 q 262 364 308 409 q 353 454 430 454 q 532 454 562 369 q 566 388 571 407 q 576 426 582 445 l 648 445 q 638 412 630 375 q 621 338 617 307 z m 435 397 q 382 397 352 363 q 321 329 308 280 q 296 232 296 188 q 296 47 393 47 q 448 47 484 91 q 521 135 532 180 l 545 281 q 545 332 514 364 q 484 397 435 397 z"},".":{"x_min":0,"x_max":208,"ha":208,"o":"m 30 0 l 40 101 l 133 101 l 123 0 z"},"p":{"x_min":0,"x_max":520,"ha":520,"o":"m 202 -195 l 180 -213 l -31 -213 l -26 -175 l -6 -156 l 40 -156 l 106 388 l 29 388 l 34 426 l 55 445 l 170 445 l 167 353 q 189 394 226 424 q 262 454 320 454 q 396 454 437 402 q 478 350 478 265 q 478 208 458 144 q 438 80 392 35 q 346 -10 268 -10 q 170 -10 134 64 l 107 -156 l 206 -156 z m 263 47 q 317 47 348 82 q 378 116 391 165 q 404 214 404 255 q 404 397 301 397 q 244 397 208 354 q 171 310 159 264 l 147 165 q 147 116 179 82 q 211 47 263 47 z"},"X":{"x_min":0,"x_max":616,"ha":616,"o":"m 580 0 l 359 0 l 366 64 l 445 64 l 305 285 l 128 64 l 202 64 l 196 0 l -22 0 l -15 64 l 49 64 l 274 337 l 114 586 l 50 586 l 57 650 l 272 650 l 266 586 l 195 586 l 321 387 l 481 586 l 417 586 l 425 650 l 638 650 l 632 586 l 561 586 l 352 337 l 527 64 l 587 64 z"},"*":{"x_min":0,"x_max":407,"ha":407,"o":"m 390 556 l 267 489 l 376 424 l 342 379 l 243 449 l 235 333 l 182 333 l 198 449 l 84 379 l 61 424 l 183 489 l 75 556 l 107 601 l 207 529 l 216 650 l 269 650 l 252 530 l 365 601 z"},"Y":{"x_min":0,"x_max":597,"ha":597,"o":"m 627 586 l 565 586 l 333 249 l 313 64 l 424 64 l 417 0 l 128 0 l 134 64 l 242 64 l 262 249 l 93 586 l 30 586 l 37 650 l 266 650 l 259 586 l 172 586 l 305 316 l 310 316 l 492 586 l 405 586 l 412 650 l 633 650 z"},"c":{"x_min":0,"x_max":440,"ha":440,"o":"m 250 397 q 170 397 137 332 q 104 266 104 190 q 104 124 128 86 q 153 47 209 47 q 300 47 335 163 l 390 150 q 376 91 331 40 q 286 -10 201 -10 q 120 -10 76 42 q 31 94 31 186 q 31 245 52 307 q 74 369 122 412 q 170 454 249 454 q 334 454 392 409 l 398 302 l 339 295 l 330 371 q 296 397 250 397 z"},"!":{"x_min":0,"x_max":237,"ha":237,"o":"m 199 650 l 136 192 l 83 192 l 117 650 z m 48 0 l 58 97 l 146 97 l 135 0 z"},"/":{"x_min":0,"x_max":376,"ha":376,"o":"m 377 688 l 89 0 l 24 0 l 310 688 z"},"[":{"x_min":0,"x_max":279,"ha":279,"o":"m 33 -213 l 135 750 l 307 750 l 301 698 l 189 698 l 99 -161 l 211 -161 l 205 -213 z"},"6":{"x_min":0,"x_max":526,"ha":526,"o":"m 472 229 q 472 138 418 64 q 364 -10 245 -10 q 133 -10 91 62 q 49 134 49 255 q 49 354 75 447 q 101 540 162 600 q 222 660 326 660 q 437 660 499 572 l 451 528 q 403 597 317 597 q 226 597 179 516 q 132 434 124 291 q 142 332 188 368 q 234 403 311 403 q 399 403 436 353 q 472 303 472 229 z m 399 219 q 399 278 374 309 q 348 340 288 340 q 207 340 170 293 q 132 246 123 200 q 124 137 151 96 q 178 56 251 56 q 330 56 364 104 q 399 151 399 219 z"},"r":{"x_min":0,"x_max":343,"ha":343,"o":"m 231 18 l 210 0 l -1 0 l 4 38 l 25 57 l 75 57 l 116 388 l 39 388 l 44 426 l 65 445 l 176 445 l 174 344 q 193 388 222 422 q 251 455 292 455 q 320 455 346 438 l 333 367 q 306 382 280 382 q 238 382 209 343 q 180 304 169 256 l 143 57 l 236 57 z"},"2":{"x_min":0,"x_max":505,"ha":505,"o":"m 122 362 l 66 369 l 95 487 q 133 508 183 520 q 233 531 277 531 q 366 531 402 486 q 439 442 439 390 q 439 317 383 256 q 327 194 252 146 q 176 98 118 64 l 371 64 l 389 147 l 447 142 l 423 0 l 25 0 l 24 57 q 180 158 270 229 q 361 300 361 379 q 361 468 253 468 q 233 468 203 462 q 173 456 147 445 z"},"{":{"x_min":0,"x_max":277,"ha":277,"o":"m 108 267 q 156 259 176 237 q 196 215 196 189 q 196 154 167 102 q 138 51 110 -4 q 81 -60 81 -106 q 81 -160 137 -160 l 200 -160 l 194 -212 l 131 -212 q 77 -212 50 -184 q 22 -156 22 -111 q 22 -58 50 0 q 79 58 108 108 q 136 159 136 190 q 136 226 102 236 q 68 247 46 247 l 28 247 l 32 287 l 50 287 q 74 287 114 300 q 153 312 153 355 q 153 398 126 474 q 99 549 99 617 q 99 678 134 714 q 168 750 232 750 l 295 750 l 290 698 l 227 698 q 157 698 157 620 q 157 579 171 530 q 185 481 199 436 q 213 390 213 358 q 213 328 190 302 q 166 276 108 267 z"},"9":{"x_min":0,"x_max":525,"ha":525,"o":"m 50 291 q 50 382 104 456 q 158 530 277 530 q 389 530 431 458 q 473 386 473 265 q 473 166 447 73 q 421 -20 360 -80 q 300 -140 196 -140 q 85 -140 23 -52 l 71 -8 q 119 -77 205 -77 q 296 -77 343 4 q 390 86 398 229 q 380 188 334 152 q 288 117 211 117 q 123 117 86 167 q 50 217 50 291 z m 123 301 q 123 242 148 211 q 174 180 234 180 q 315 180 352 227 q 390 274 399 320 q 398 383 371 424 q 344 464 271 464 q 192 464 158 416 q 123 369 123 301 z"}," ":{"x_min":0,"x_max":220,"ha":220,"o":""},"I":{"x_min":0,"x_max":311,"ha":311,"o":"m 19 64 l 98 64 l 153 586 l 73 586 l 80 650 l 309 650 l 303 586 l 222 586 l 167 64 l 248 64 l 241 0 l 12 0 z"},"H":{"x_min":0,"x_max":733,"ha":733,"o":"m 19 64 l 98 64 l 153 586 l 74 586 l 81 650 l 310 650 l 303 586 l 223 586 l 200 362 l 551 362 l 574 586 l 495 586 l 502 650 l 731 650 l 724 586 l 645 586 l 590 64 l 670 64 l 663 0 l 434 0 l 441 64 l 519 64 l 544 300 l 193 300 l 168 64 l 248 64 l 242 0 l 13 0 z"},"4":{"x_min":0,"x_max":529,"ha":529,"o":"m 360 -131 l 289 -131 l 307 36 l 4 36 l 3 98 l 276 521 l 428 521 l 384 98 l 488 98 l 473 36 l 378 36 z m 313 98 l 351 458 l 301 458 l 71 98 z"},"~":{"x_min":0,"x_max":603,"ha":603,"o":"m 402 200 q 356 200 324 218 q 291 236 260 254 q 228 271 186 271 q 162 271 136 260 q 111 248 82 207 l 43 234 q 77 288 117 312 q 157 336 196 336 q 238 336 270 318 q 302 300 334 282 q 367 265 409 265 q 439 265 464 281 q 488 297 519 342 l 562 312 q 488 200 402 200 z"},"D":{"x_min":0,"x_max":686,"ha":686,"o":"m 12 0 l 19 63 l 98 63 l 153 587 l 74 587 l 80 650 l 362 650 q 505 650 579 569 q 653 488 653 361 q 653 206 556 103 q 460 0 297 0 z m 300 63 q 430 63 504 144 q 579 226 579 355 q 579 461 522 524 q 465 587 355 587 l 223 587 l 168 63 z"},"^":{"x_min":0,"x_max":445,"ha":445,"o":"m 240 656 l 285 656 l 416 373 l 352 373 l 255 587 l 116 373 l 52 373 z"},"0":{"x_min":0,"x_max":566,"ha":566,"o":"m 42 224 q 42 348 112 439 q 181 530 310 530 q 418 530 469 464 q 520 397 520 291 q 520 159 449 74 q 378 -10 253 -10 q 150 -10 96 52 q 42 115 42 224 z m 118 232 q 118 150 151 102 q 184 55 260 55 q 346 55 395 118 q 444 181 444 291 q 444 370 412 418 q 380 465 302 465 q 212 465 165 402 q 118 338 118 232 z"},"F":{"x_min":0,"x_max":544,"ha":544,"o":"m 537 462 l 472 456 l 466 586 l 224 586 l 197 333 l 490 333 l 483 269 l 190 269 l 169 64 l 282 64 l 275 0 l 12 0 l 19 64 l 98 64 l 153 586 l 73 586 l 80 650 l 536 650 z"},"`":{"x_min":0,"x_max":431,"ha":431,"o":"m 393 520 l 211 624 l 246 683 l 412 551 z"},"k":{"x_min":0,"x_max":446,"ha":446,"o":"m 46 669 l 68 688 l 192 688 l 139 258 l 221 258 q 267 298 294 344 q 322 390 326 445 l 398 445 q 394 383 356 328 q 319 274 261 234 l 358 57 l 420 57 l 415 17 l 394 0 l 316 0 l 207 205 l 133 205 l 108 0 l 40 0 l 117 631 l 41 631 z"},"u":{"x_min":0,"x_max":522,"ha":522,"o":"m 483 57 l 478 19 l 456 0 l 341 0 l 342 85 q 319 42 283 16 q 247 -9 195 -9 q 131 -9 94 32 q 57 72 67 160 l 95 388 l 20 388 l 25 428 l 47 445 l 170 445 l 138 180 q 129 109 150 78 q 172 48 223 48 q 276 48 308 83 q 339 118 349 164 l 384 445 l 452 445 l 405 57 z"},"]":{"x_min":0,"x_max":279,"ha":279,"o":"m 244 750 l 142 -213 l -30 -213 l -24 -161 l 88 -161 l 178 698 l 66 698 l 72 750 z"},"U":{"x_min":0,"x_max":696,"ha":696,"o":"m 482 650 l 699 650 l 693 586 l 631 586 l 598 267 q 590 198 563 134 q 536 71 479 30 q 422 -10 324 -10 q 183 -10 134 70 q 86 151 97 256 l 132 586 l 67 586 l 73 650 l 298 650 l 290 586 l 203 586 l 169 258 q 159 162 198 109 q 237 56 331 56 q 508 56 531 267 l 564 586 l 475 586 z"},"o":{"x_min":0,"x_max":480,"ha":480,"o":"m 31 189 q 31 294 89 374 q 147 454 260 454 q 356 454 396 395 q 437 336 437 252 q 437 141 376 66 q 316 -10 208 -10 q 117 -10 74 45 q 31 100 31 189 z m 105 193 q 105 128 128 88 q 152 47 215 47 q 293 47 328 108 q 364 168 364 250 q 364 315 340 356 q 316 397 252 397 q 179 397 142 340 q 105 283 105 193 z"},"N":{"x_min":0,"x_max":715,"ha":715,"o":"m 25 64 l 98 64 l 153 586 l 70 586 l 77 650 l 211 650 l 520 148 l 523 148 l 568 586 l 474 586 l 480 650 l 722 650 l 716 586 l 636 586 l 575 0 l 530 0 l 216 512 l 213 512 l 165 64 l 267 64 l 261 0 l 18 0 z"},"+":{"x_min":0,"x_max":414,"ha":414,"o":"m 35 254 l 40 308 l 187 308 l 203 455 l 255 455 l 239 308 l 380 308 l 375 254 l 233 254 l 218 108 l 166 108 l 181 254 z"},"G":{"x_min":0,"x_max":675,"ha":675,"o":"m 647 270 l 597 270 l 569 0 l 514 0 l 514 89 q 482 46 428 18 q 373 -10 304 -10 q 183 -10 113 76 q 43 161 43 291 q 43 394 87 478 q 131 562 210 611 q 289 660 393 660 q 461 660 518 639 q 575 618 608 584 l 612 462 l 551 455 l 541 547 q 518 564 481 579 q 444 594 389 594 q 269 594 193 513 q 117 432 117 296 q 117 181 172 118 q 227 56 321 56 q 410 56 462 105 q 513 154 520 212 l 526 270 l 373 270 l 380 335 l 654 335 z"},"q":{"x_min":0,"x_max":502,"ha":502,"o":"m 432 -195 l 410 -213 l 205 -213 l 210 -175 l 231 -156 l 307 -156 l 336 87 q 312 47 274 18 q 236 -10 180 -10 q 107 -10 69 41 q 31 92 31 176 q 31 234 52 299 q 73 364 120 409 q 166 454 243 454 q 346 454 376 370 q 380 389 385 408 q 390 426 396 445 l 463 445 q 453 410 444 376 q 436 342 432 307 l 375 -156 l 437 -156 z m 250 397 q 195 397 163 364 q 131 330 118 281 q 104 232 104 185 q 104 47 202 47 q 258 47 298 94 q 338 140 349 186 l 360 282 q 360 332 328 364 q 296 397 250 397 z"},"d":{"x_min":0,"x_max":510,"ha":510,"o":"m 305 670 l 326 688 l 479 688 l 401 57 l 477 57 l 473 17 l 451 0 l 337 0 l 339 91 q 315 50 276 20 q 238 -10 180 -10 q 107 -10 69 41 q 31 92 31 176 q 31 234 52 299 q 73 364 120 409 q 166 454 243 454 q 339 454 372 380 l 403 631 l 301 631 z m 250 397 q 195 397 163 364 q 131 330 118 281 q 104 232 104 185 q 104 47 202 47 q 259 47 299 96 q 339 144 349 191 l 361 287 q 359 335 328 366 q 296 397 250 397 z"},"1":{"x_min":0,"x_max":375,"ha":375,"o":"m 29 64 l 149 64 l 190 457 l 71 457 l 77 521 l 268 521 l 220 64 l 335 64 l 328 0 l 22 0 z"},"5":{"x_min":0,"x_max":503,"ha":503,"o":"m 440 79 q 440 -20 380 -80 q 320 -140 213 -140 q 124 -140 78 -100 q 33 -59 28 0 l 86 20 q 95 -24 125 -51 q 155 -78 213 -78 q 288 -78 326 -36 q 363 6 363 71 q 363 156 308 181 q 254 206 176 206 q 135 206 93 203 l 71 227 l 103 521 l 457 521 l 452 383 l 391 377 l 388 458 l 163 458 l 142 267 q 154 268 167 268 q 180 268 191 268 q 291 268 366 232 q 440 195 440 79 z"}}}
